<?xml version="1.0"?>
<svg width="512" height="512" xmlns="http://www.w3.org/2000/svg" xmlns:svg="http://www.w3.org/2000/svg" version="1.1">
 <g class="layer">
  <title>Layer 1</title>
  <path d="m217.44,4.94c3.01,3.98 3.06,8.25 2.56,13.06c-2.12,5.32 -6.95,9.1 -11,13c-0.84,0.85 -1.69,1.69 -2.56,2.57c-1.33,1.32 -2.66,2.64 -4,3.95c-4.1,4 -7.76,8.14 -11.19,12.73c-0.51,0.68 -1.02,1.37 -1.54,2.07c-28.83,39.5 -41.35,89.51 -34.12,137.94c3.6,21.73 10.93,42.4 21.41,61.74c0.57,1.05 1.13,2.09 1.71,3.17c7.13,12.67 15.67,23.86 25.78,34.27c1.47,1.52 2.93,3.07 4.38,4.62c31.65,33.3 78.88,51.48 124.22,53.23c32.53,0.73 64.32,-6.78 92.91,-22.29c1.17,-0.61 2.34,-1.23 3.54,-1.86c13.36,-7.29 25.5,-16.59 36.46,-27.14c0.5,-0.47 1,-0.95 1.52,-1.44c7.11,-6.77 13.43,-13.7 19.17,-21.68c3.05,-3.79 6,-7.28 10.88,-8.54c4.35,0.07 7.5,0.2 11,2.98c4.68,5.16 3.7,11.07 3.43,17.68c-0.37,3.83 -0.96,7.59 -1.62,11.38c-0.18,1.03 -0.36,2.06 -0.54,3.12c-1.93,10.71 -4.65,21.11 -7.84,31.5c-0.36,1.21 -0.36,1.21 -0.73,2.43c-14.28,46.91 -45.36,91.73 -84.27,121.57c-0.93,0.76 -1.86,1.52 -2.82,2.3c-14.41,11.56 -30.45,20.93 -47.18,28.7c-1.01,0.49 -1.01,0.49 -2.04,0.98c-60.08,28.69 -130.17,31.42 -192.96,10.02c-34.91,-12.39 -66.29,-31.27 -93,-57c-0.66,-0.63 -1.32,-1.26 -2,-1.91c-9.48,-9.15 -18.22,-18.44 -26,-29.09c-0.86,-1.15 -1.71,-2.3 -2.57,-3.45c-6.04,-8.19 -11.4,-16.71 -16.43,-25.55c-0.36,-0.63 -0.73,-1.26 -1.1,-1.91c-14.73,-25.73 -24.31,-54.84 -28.9,-84.09c-0.17,-1.09 -0.35,-2.19 -0.53,-3.31c-1.76,-12.15 -1.87,-24.24 -1.84,-36.5c0,-1.08 0,-2.17 0,-3.29c0.04,-16.63 0.77,-32.6 4.37,-48.9c0.22,-1.01 0.43,-2.02 0.65,-3.06c8.9,-41.23 27.79,-79.98 55.35,-111.94c0.64,-0.74 1.27,-1.49 1.92,-2.26c11.82,-13.5 24.57,-26.17 39.08,-36.74c1.15,-0.85 2.3,-1.71 3.45,-2.57c8.19,-6.04 16.71,-11.39 25.55,-16.43c0.93,-0.54 0.93,-0.54 1.87,-1.09c17.34,-10.05 67.01,-37.72 85.57,-22.97zm-116.98,76.8c-2.15,1.98 -4.35,3.88 -6.58,5.76c-18.4,16.09 -32.59,38.02 -43.88,59.5c-0.37,0.7 -0.74,1.4 -1.12,2.12c-27.03,51.97 -32.6,115.86 -15.07,171.76c10.66,32.41 26.54,61.58 49.19,87.12c0.49,0.55 0.98,1.1 1.48,1.67c40.66,45.65 99.19,72.31 159.95,76.19c59.81,3.27 120.24,-18.03 164.94,-57.83c3.26,-2.95 6.45,-5.98 9.63,-9.03c0.95,-0.89 1.9,-1.79 2.87,-2.71c6.59,-6.37 12.28,-13.18 17.77,-20.49c1.31,-1.73 2.66,-3.44 4.01,-5.15c15.63,-20.07 28.78,-44.72 34.35,-69.65c-3.4,1.51 -5.88,3.51 -8.68,5.94c-41.72,34.41 -97.32,48.98 -150.72,44.6c-48.06,-4.74 -91.82,-25.24 -126.6,-58.54c-0.5,-0.47 -1,-0.94 -1.51,-1.43c-7.99,-7.58 -14.98,-15.67 -21.49,-24.57c-0.41,-0.55 -0.82,-1.11 -1.24,-1.68c-32.4,-44.45 -44.57,-101.11 -36.79,-155.19c4.76,-29.71 15.4,-58.39 32.22,-83.38c1.46,-2.21 2.7,-4.35 3.81,-6.75c-21.77,0 -51.22,27.49 -66.54,41.74z" fill="#3b4252" id="svg_1"/>
  <path d="m76.86,291.5c11.57,0 9.61,-0.01 7.21,0.01c-1.06,0.01 -2.28,0.02 -5.26,0.07c-3.84,0.07 -6.11,0.14 -8.59,0.2c-2.64,0.07 -5.39,0.14 -8.2,0.22c-2.84,0.07 -5.66,0.15 -8.41,0.22c-5.11,0.12 -7.4,0.17 -9.49,0.2c-1.91,0.03 -3.65,0.04 -5.23,0.03c-1.43,-0.01 -2.73,-0.04 -3.9,-0.11c-2.02,-0.13 -2.89,-0.25 -3.65,-0.4c-0.71,-0.14 -1.35,-0.32 -1.86,-0.55c-0.51,-0.23 -1.45,-0.8 -2,-1.96c-0.44,-0.93 -0.41,-1.46 -0.42,-2.56c-0.01,-0.58 0.24,-2.36 0.37,-2.96c0.14,-0.6 0.51,-1.77 0.77,-2.34c0.25,-0.56 0.79,-1.63 1.75,-2.56c0.9,-0.87 2.39,-1.62 3.36,-1.92c2.24,-0.7 3.82,-0.95 7.61,-1.42c2.28,-0.28 4.88,-0.49 7.76,-0.7c3.13,-0.23 6.52,-0.43 10.17,-0.61c3.88,-0.2 7.99,-0.38 16.88,-0.68c4.74,-0.16 9.64,-0.29 14.62,-0.4c5.02,-0.11 10.01,-0.2 14.93,-0.25c4.78,-0.05 9.37,-0.11 17.73,-0.02c3.68,0.04 7.03,0.14 10.07,0.28c2.77,0.13 5.3,0.29 7.6,0.49c2.13,0.19 4.11,0.39 7.67,0.9c1.68,0.24 3.27,0.51 4.78,0.79c1.44,0.26 2.79,0.54 4.04,0.82c1.17,0.27 2.27,0.51 4.04,1.06c0.76,0.23 1.39,0.47 1.91,0.7c0.47,0.21 0.83,0.42 1.14,0.61l0.25,0.19l0.2,0.17" fill="none" id="svg_2"/>
  <rect fill="#3b4252" height="72" id="svg_5" width="169" x="12" y="261.5"/>
  <path d="m142.17,356.96l0,-121l121,121z" fill="#3b4252" id="svg_10"/>
  <path d="m94.74,317.93l0,115l-81,-115z" fill="#3b4252" id="svg_11" transform="matrix(1 0 0 1 0 0)"/>
  <rect fill="#3b4252" height="108" id="svg_12" width="153" x="81" y="326.5"/>
  <rect fill="#3b4252" height="82" id="svg_13" width="290" x="101" y="361.5"/>
  <rect fill="#3b4252" height="26" id="svg_14" width="63" x="214" y="344.5"/>
  <rect fill="#3b4252" height="116" id="svg_15" width="133" x="17" y="202.5"/>
  <rect fill="#3b4252" height="63" id="svg_16" transform="matrix(1 0 0 1 0 0)" width="117" x="25" y="145.5"/>
  <rect fill="#3b4252" height="174.86" id="svg_17" transform="rotate(46.4951 104.859 88.6492)" width="29.03" x="90.35" y="1.22"/>
  <rect fill="#3b4252" height="123.62" id="svg_18" transform="rotate(29.7349 118.511 109.884)" width="57" x="90.01" y="48.07"/>
  <rect fill="#3b4252" height="30.7" id="svg_20" transform="rotate(-33.706 430.252 357.361)" width="133" x="363.75" y="342.01"/>
  <rect fill="#3b4252" height="45.82" id="svg_21" transform="rotate(-42.1376 424.401 388.733)" width="122.22" x="363.29" y="365.82"/>
  <rect fill="#3b4252" height="41" id="svg_22" width="276" x="117" y="425.5"/>
  <rect fill="#3b4252" height="40" id="svg_23" width="191" x="162" y="449.5"/>
 </g>
</svg>